# xmcd
#
# Track frame offsets:
#	150
#	16447
#	28672
#	42772
#	59077
#	92137
#	114967
#	123457
#	128879
#	137024
#	149916
#	179376
#	194151
#	216561
#	221511
#	240186
#	257691
#	274596
#	288808
#	312433
#
# Disc length: 4500 seconds
#
# Revision: 1
# Processed by: cddbd v1.5.1PL0 Copyright (c) Steve Scherf et al.
# Submitted via: audiograbber 1.81.02
#
DISCID=3c119214
DTITLE=Bon Jovi - A Collection of Acoustic Bootlegs [CD2]
DYEAR=2001
DGENRE=Pop
TTITLE0=Thank you for loving me
TTITLE1=Everyday
TTITLE2=Missunderstood
TTITLE3=Richie's jam
TTITLE4=MTV VMA '89 Presentation
TTITLE5=Knockin' on heaven's door
TTITLE6=Fever
TTITLE7=Can't help falling in love
TTITLE8=Little wing
TTITLE9=Here comes the sun
TTITLE10=Imagine - Give peace a chance
TTITLE11=Mrs. Robinson
TTITLE12=Bridge over troubled water
TTITLE13=Because the night
TTITLE14=Jersey girl
TTITLE15=Little city
TTITLE16=Shooting star
TTITLE17=Please, come home for Christmas
TTITLE18=Livin' on a prayer
TTITLE19=Wanted dead or alive 2000
EXTD=
EXTT0=
EXTT1=
EXTT2=
EXTT3=
EXTT4=
EXTT5=
EXTT6=
EXTT7=
EXTT8=
EXTT9=
EXTT10=
EXTT11=
EXTT12=
EXTT13=
EXTT14=
EXTT15=
EXTT16=
EXTT17=
EXTT18=
EXTT19=
PLAYORDER=
